3.0Hz3min_grf.mot
version=1
nRows=15
nColumns 19
inDegrees=yes
endheader
time	1_ground_force_vx	1_ground_force_vy	1_ground_force_vz	1_ground_force_px	1_ground_force_py	1_ground_force_pz	1_ground_torque_x	1_ground_torque_y	1_ground_torque_z	2_ground_force_vx	2_ground_force_vy	2_ground_force_vz	2_ground_force_px	2_ground_force_py	2_ground_force_pz	2_ground_torque_x	2_ground_torque_y	2_ground_torque_z
            3.744000	            9.715768	           15.504922	           -0.003502	           -0.234614	            0.006047	           -0.364295	           -0.452599	           -0.722281	            0.000163	           12.625749	           20.102779	            4.336677	           -0.264595	            0.005528	           -0.697593	           -0.198355	           -0.315821	           -0.068131
            3.744500	            9.303445	           14.062717	           -0.008661	           -0.237342	            0.006029	           -0.360310	           -0.483150	           -0.730310	            0.000450	           12.254979	           18.996201	            4.426750	           -0.261325	            0.005562	           -0.703700	           -0.145461	           -0.225476	           -0.052543
            3.745000	            8.707552	           13.702071	           -0.008728	           -0.236588	            0.006059	           -0.367213	           -0.483420	           -0.760703	            0.000485	           11.608138	           16.417765	            3.854693	           -0.267653	            0.005515	           -0.697158	           -0.185345	           -0.262139	           -0.061547
            3.745500	            7.882573	           13.881784	            0.085804	           -0.233240	            0.006004	           -0.354194	           -0.495672	           -0.872914	           -0.005396	           11.565735	           15.130231	            3.380833	           -0.274155	            0.005520	           -0.704915	           -0.159301	           -0.208396	           -0.046566
            3.746000	            7.699692	           12.439230	            0.171788	           -0.231861	            0.006002	           -0.353799	           -0.501846	           -0.810757	           -0.011197	           11.010785	           13.103072	            3.233060	           -0.276907	            0.005516	           -0.706539	           -0.197023	           -0.234461	           -0.057851
            3.746500	            6.966207	           11.177621	            0.076486	           -0.238404	            0.006021	           -0.358338	           -0.461792	           -0.740968	           -0.005070	           10.406307	           11.812504	            3.041007	           -0.285654	            0.005497	           -0.710303	           -0.236098	           -0.268002	           -0.068994
            3.747000	            6.415783	           10.997839	           -0.060490	           -0.243095	            0.005999	           -0.353605	           -0.385376	           -0.660606	            0.003633	            9.799917	           11.073711	            3.038638	           -0.280775	            0.005510	           -0.709028	           -0.218989	           -0.247453	           -0.067901
            3.747500	            5.682247	           10.637363	           -0.106071	           -0.243192	            0.005937	           -0.339149	           -0.400598	           -0.749934	            0.007478	            8.817378	           10.702030	            2.990814	           -0.286790	            0.005509	           -0.714619	           -0.230591	           -0.279878	           -0.078215
            3.748000	            5.177435	           11.719449	           -0.237750	           -0.233583	            0.005881	           -0.325564	           -0.345010	           -0.780952	            0.015843	            8.169352	            8.490718	            2.748568	           -0.232311	            0.006130	           -0.833667	           -1.205700	            0.876911	           -0.599559
            3.748500	            3.757654	           11.176215	            0.267874	           -0.234217	            0.005881	           -0.325507	           -0.271526	           -0.807587	           -0.019356	            7.659779	            6.833196	            2.273592	           -0.232311	            0.006130	           -0.833667	           -1.092783	            0.820602	           -0.599809
            3.749000	            2.701980	           11.358440	           -0.233152	           -0.249437	            0.005844	           -0.317675	           -0.174132	           -0.732009	            0.015026	            7.048634	            7.384279	            2.041182	           -0.232311	            0.006130	           -0.833667	           -0.979910	            0.782997	           -0.543441
            3.749500	            1.832347	           10.635046	            0.270333	           -0.240233	            0.005799	           -0.306687	           -0.127284	           -0.738766	           -0.018779	            6.441997	            6.647495	            1.475676	           -0.232311	            0.006130	           -0.833667	           -0.885445	            0.632160	           -0.562871
            3.750000	            0.502949	           10.995124	            0.321035	           -0.240205	            0.005773	           -0.300655	           -0.025249	           -0.551970	           -0.016116	            5.554425	            5.908357	            1.285714	           -0.232311	            0.006130	           -0.833667	           -0.753361	            0.481055	           -0.469215
            3.750500	           -0.368652	           10.455338	            0.045742	           -0.236425	            0.005725	           -0.289298	            0.017391	           -0.493216	           -0.002158	            4.712394	            5.537518	            1.143974	           -0.232311	            0.006130	           -0.833667	           -0.771582	            0.320426	           -0.507481
            3.751000	           -0.460614	           10.095379	           -0.093144	           -0.246766	            0.005698	           -0.283555	            0.018225	           -0.399447	            0.003685	            3.774711	            5.718450	            1.098101	           -0.232311	            0.006130	           -0.833667	           -0.658315	            0.160339	           -0.564653
